<?xml version="1.0" encoding="utf-8"?>
<!-- Generator: Adobe Illustrator 27.9.3, SVG Export Plug-In . SVG Version: 9.03 Build 53313)  -->
<svg version="1.0" id="Layer_1" xmlns="http://www.w3.org/2000/svg" xmlns:xlink="http://www.w3.org/1999/xlink" x="0px" y="0px"
	 viewBox="0 0 128 128" style="enable-background:new 0 0 128 128;" xml:space="preserve">
<style type="text/css">
	.st0{fill:#FFFFFF;}
</style>
<path d="M18.7,18.6c34.6,34.6,34.6,55.9,0,90.5l45.3-45.3L18.7,18.6z"/>
<path d="M109.2,18.6c-34.6,34.6-55.9,34.6-90.5,0l45.3,45.3L109.2,18.6z"/>
<path d="M109.2,109.1c-34.6-34.6-34.6-55.9,0-90.5L63.9,63.8L109.2,109.1z"/>
<path d="M18.7,109.1c34.6-34.6,55.9-34.6,90.5,0L63.9,63.8L18.7,109.1z"/>
<path d="M63.9-0.2c0,49-15,64-64,64h64V-0.2z"/>
<path class="st0" d="M127.9,63.8c-49,0-64-15-64-64l0,64L127.9,63.8z"/>
<path d="M63.9,127.8c0-49,15-64,64-64h-64V127.8z"/>
<path class="st0" d="M-0.1,63.8c49,0,64,15,64,64l0-64L-0.1,63.8z"/>
</svg>
